<?xml version="1.0" standalone="no"?>
<!DOCTYPE svg PUBLIC "-//W3C//DTD SVG 20010904//EN"
 "http://www.w3.org/TR/2001/REC-SVG-20010904/DTD/svg10.dtd">
<svg version="1.0" xmlns="http://www.w3.org/2000/svg"
 width="867.000000pt" height="1500.000000pt" viewBox="0 0 867.000000 1500.000000"
 preserveAspectRatio="xMidYMid meet">

<g transform="translate(0.000000,1500.000000) scale(0.100000,-0.100000)"
fill="#7a22a7 " stroke="none">
<path d="M5380 14991 c0 -5 14 -14 31 -22 18 -7 43 -22 58 -33 14 -12 33 -25
42 -31 51 -32 105 -70 117 -82 7 -7 17 -13 21 -13 4 0 16 -8 27 -17 10 -10 48
-38 84 -62 36 -25 77 -54 92 -65 15 -12 48 -37 75 -56 26 -19 55 -40 63 -47 8
-7 44 -35 80 -63 36 -27 72 -55 80 -63 8 -7 26 -20 40 -29 14 -9 43 -33 65
-53 22 -21 48 -43 57 -49 36 -26 197 -169 332 -296 152 -143 256 -252 401
-418 17 -19 41 -47 55 -63 14 -15 43 -51 65 -80 22 -29 47 -59 55 -68 13 -14
60 -75 123 -162 10 -13 40 -58 67 -99 27 -41 53 -80 59 -86 5 -6 20 -31 33
-55 13 -24 36 -63 51 -86 15 -24 27 -47 27 -52 0 -5 6 -16 14 -24 13 -13 166
-319 166 -332 0 -3 11 -30 24 -58 13 -29 29 -70 36 -92 7 -22 16 -44 20 -50
11 -14 50 -145 50 -166 0 -9 3 -19 8 -21 8 -3 52 -175 52 -205 0 -10 4 -23 8
-28 21 -24 61 -329 71 -535 10 -238 -6 -502 -49 -780 -7 -41 -15 -84 -20 -95
-4 -11 -18 -69 -29 -128 -12 -60 -26 -116 -31 -125 -4 -10 -18 -57 -30 -107
-13 -49 -26 -94 -30 -100 -4 -5 -17 -47 -30 -92 -13 -46 -27 -83 -32 -83 -4 0
-8 -7 -8 -15 0 -19 -41 -138 -49 -145 -4 -3 -12 -21 -18 -40 -17 -52 -37 -104
-43 -110 -3 -3 -17 -33 -30 -67 -14 -35 -28 -63 -31 -63 -4 0 -10 -12 -14 -27
-7 -30 -164 -355 -175 -363 -3 -3 -17 -27 -30 -55 -13 -27 -26 -52 -30 -55 -4
-3 -17 -27 -30 -55 -13 -27 -26 -52 -29 -55 -3 -3 -17 -25 -30 -50 -14 -25
-27 -47 -30 -50 -3 -3 -17 -25 -30 -50 -14 -25 -27 -47 -31 -50 -4 -3 -17 -25
-31 -50 -13 -25 -32 -54 -41 -64 -10 -11 -18 -25 -18 -31 0 -6 -8 -20 -18 -31
-10 -10 -21 -26 -25 -34 -4 -8 -15 -27 -25 -41 -59 -89 -72 -110 -72 -119 0
-5 -4 -10 -9 -10 -5 0 -24 -24 -41 -52 -17 -29 -45 -71 -61 -93 -16 -22 -46
-64 -67 -94 -20 -30 -47 -68 -60 -85 -12 -17 -35 -49 -50 -71 -15 -23 -33 -47
-39 -55 -44 -52 -85 -106 -95 -124 -6 -12 -32 -46 -57 -76 -26 -30 -53 -65
-61 -76 -18 -27 -143 -191 -167 -220 -10 -12 -31 -38 -48 -58 -16 -21 -42 -51
-57 -68 -16 -17 -28 -34 -28 -37 0 -3 -16 -24 -35 -46 -19 -22 -46 -53 -60
-70 -14 -16 -40 -48 -59 -70 -19 -22 -89 -105 -156 -185 -113 -135 -176 -209
-225 -264 -11 -13 -36 -43 -56 -67 -21 -24 -52 -60 -70 -80 -35 -36 -133 -146
-168 -188 -39 -46 -146 -166 -177 -198 -17 -18 -46 -49 -64 -70 -49 -57 -162
-182 -190 -212 -14 -14 -59 -64 -100 -111 -41 -46 -84 -94 -96 -105 -20 -19
-196 -211 -279 -304 -22 -25 -53 -59 -70 -76 -16 -16 -47 -50 -68 -75 -42 -48
-190 -209 -271 -293 -26 -28 -60 -67 -74 -86 -15 -18 -49 -57 -77 -86 -47 -50
-150 -162 -194 -214 -41 -47 -147 -165 -176 -196 -16 -17 -48 -53 -70 -80 -22
-27 -50 -58 -61 -69 -23 -23 -79 -87 -278 -321 -70 -82 -142 -166 -159 -186
-18 -20 -45 -53 -62 -73 -16 -21 -35 -43 -40 -49 -14 -16 -54 -66 -90 -112
-16 -21 -37 -46 -46 -55 -9 -10 -21 -24 -25 -33 -5 -8 -21 -30 -36 -48 -72
-90 -165 -208 -183 -233 -11 -15 -41 -55 -68 -89 -62 -81 -59 -77 -87 -117
-13 -19 -27 -37 -30 -40 -3 -3 -14 -18 -26 -35 -11 -16 -37 -54 -57 -82 -20
-29 -37 -57 -37 -63 0 -5 -3 -10 -8 -10 -4 0 -18 -18 -32 -40 -14 -22 -28 -40
-32 -40 -5 0 -8 -4 -8 -9 0 -9 -97 -159 -109 -171 -9 -8 -30 -43 -41 -68 -5
-12 -14 -28 -20 -35 -18 -20 -74 -110 -95 -152 -11 -22 -24 -45 -30 -51 -5 -6
-19 -28 -30 -50 -11 -21 -25 -44 -30 -50 -6 -6 -19 -31 -30 -55 -11 -24 -22
-46 -26 -49 -11 -9 -49 -89 -49 -104 0 -8 -4 -16 -9 -18 -8 -3 -101 -190 -101
-204 0 -3 -12 -29 -26 -58 -43 -86 -120 -290 -166 -441 -71 -236 -111 -451
-123 -668 l-7 -127 3781 0 3781 0 0 7500 0 7500 -1645 0 c-939 0 -1645 -4
-1645 -9z"/>
</g>
</svg>
