<?xml version="1.0" standalone="no"?>
<!DOCTYPE svg PUBLIC "-//W3C//DTD SVG 20010904//EN"
 "http://www.w3.org/TR/2001/REC-SVG-20010904/DTD/svg10.dtd">
<svg version="1.0" xmlns="http://www.w3.org/2000/svg"
 width="374.000000pt" height="112.000000pt" viewBox="0 0 374.000000 112.000000"
 preserveAspectRatio="xMidYMid meet">
<metadata>
Created by potrace 1.16, written by Peter Selinger 2001-2019
</metadata>
<g transform="translate(0.000000,112.000000) scale(0.100000,-0.100000)"
fill="#000000" stroke="none">
<path d="M80 625 l0 -375 80 0 80 0 2 229 3 229 149 -229 149 -229 79 0 78 0
0 375 0 375 -80 0 -80 0 -2 -232 -3 -232 -150 232 -150 231 -77 1 -78 0 0
-375z"/>
<path d="M860 625 l0 -375 210 0 210 0 0 70 0 70 -135 0 -135 0 0 95 0 95 135
0 135 0 0 75 0 75 -135 0 -135 0 0 60 0 60 135 0 135 0 0 75 0 75 -210 0 -210
0 0 -375z"/>
<path d="M1340 925 l0 -75 65 0 65 0 0 -300 0 -300 80 0 80 0 0 300 0 300 55
0 55 0 0 -169 0 -169 44 -88 c25 -49 62 -109 82 -133 l38 -43 110 4 c89 4 120
9 153 26 62 32 111 86 147 161 29 62 31 73 31 176 -1 88 -5 120 -22 163 -26
65 -75 130 -124 165 -71 51 -121 57 -506 57 l-353 0 0 -75z m714 -87 c52 -16
108 -72 124 -124 17 -57 15 -157 -4 -202 -20 -48 -60 -89 -98 -101 -17 -5 -66
-12 -108 -16 l-78 -6 0 231 0 230 61 0 c34 0 80 -6 103 -12z"/>
<path d="M2480 625 l0 -375 210 0 210 0 0 70 0 70 -135 0 -135 0 0 95 0 95
135 0 135 0 0 75 0 75 -135 0 -135 0 0 60 0 60 135 0 135 0 0 75 0 75 -210 0
-210 0 0 -375z"/>
<path d="M2991 918 c16 -46 76 -213 133 -373 l103 -290 78 0 78 0 128 355 c71
195 132 363 135 373 5 15 -3 17 -74 17 -55 0 -81 -4 -85 -12 -2 -7 -44 -123
-92 -256 l-88 -244 -17 44 c-9 23 -50 139 -91 255 l-74 213 -82 0 -81 0 29
-82z"/>
<path d="M776 188 c-36 -51 -7 -108 53 -108 46 0 71 24 71 67 0 39 -28 63 -73
63 -26 0 -40 -6 -51 -22z"/>
<path d="M1507 192 c-22 -25 -21 -75 1 -95 42 -39 122 -7 122 48 0 56 -86 88
-123 47z"/>
<path d="M3030 200 c0 -5 5 -10 10 -10 6 0 10 -25 10 -55 0 -42 3 -55 15 -55
12 0 15 13 15 56 0 47 3 55 17 52 11 -2 20 -19 28 -53 13 -62 40 -74 53 -23
l8 33 12 -32 c15 -45 39 -42 51 5 23 92 23 92 1 92 -15 0 -20 -7 -20 -26 0
-14 -4 -23 -10 -19 -5 3 -10 15 -10 26 0 34 -37 23 -45 -13 l-7 -33 -9 33 c-9
31 -11 32 -64 32 -30 0 -55 -4 -55 -10z"/>
<path d="M3297 192 c-22 -25 -21 -75 1 -95 42 -39 122 -7 122 48 0 56 -86 88
-123 47z"/>
</g>
</svg>
