<svg id="visual" viewBox="0 0 450 900" width="450" height="900" xmlns="http://www.w3.org/2000/svg" xmlns:xlink="http://www.w3.org/1999/xlink" version="1.1"><path d="M199 0L194.3 11.5C189.7 23 180.3 46 177.8 69C175.3 92 179.7 115 176.7 138.2C173.7 161.3 163.3 184.7 155.3 207.8C147.3 231 141.7 254 141.3 277C141 300 146 323 148.3 346C150.7 369 150.3 392 150.3 415.2C150.3 438.3 150.7 461.7 155.7 484.8C160.7 508 170.3 531 166.7 554C163 577 146 600 150.7 623C155.3 646 181.7 669 186.2 692.2C190.7 715.3 173.3 738.7 172.7 761.8C172 785 188 808 184.7 831C181.3 854 158.7 877 147.3 888.5L136 900L0 900L0 888.5C0 877 0 854 0 831C0 808 0 785 0 761.8C0 738.7 0 715.3 0 692.2C0 669 0 646 0 623C0 600 0 577 0 554C0 531 0 508 0 484.8C0 461.7 0 438.3 0 415.2C0 392 0 369 0 346C0 323 0 300 0 277C0 254 0 231 0 207.8C0 184.7 0 161.3 0 138.2C0 115 0 92 0 69C0 46 0 23 0 11.5L0 0Z" fill="#332c3f"></path><path d="M141 0L143.2 11.5C145.3 23 149.7 46 152.3 69C155 92 156 115 153.7 138.2C151.3 161.3 145.7 184.7 146.3 207.8C147 231 154 254 153.3 277C152.7 300 144.3 323 136.2 346C128 369 120 392 117.8 415.2C115.7 438.3 119.3 461.7 117.3 484.8C115.3 508 107.7 531 112 554C116.3 577 132.7 600 134.8 623C137 646 125 669 117.2 692.2C109.3 715.3 105.7 738.7 110.7 761.8C115.7 785 129.3 808 138.3 831C147.3 854 151.7 877 153.8 888.5L156 900L0 900L0 888.5C0 877 0 854 0 831C0 808 0 785 0 761.8C0 738.7 0 715.3 0 692.2C0 669 0 646 0 623C0 600 0 577 0 554C0 531 0 508 0 484.8C0 461.7 0 438.3 0 415.2C0 392 0 369 0 346C0 323 0 300 0 277C0 254 0 231 0 207.8C0 184.7 0 161.3 0 138.2C0 115 0 92 0 69C0 46 0 23 0 11.5L0 0Z" fill="#402f54"></path><path d="M79 0L85.5 11.5C92 23 105 46 107.2 69C109.3 92 100.7 115 101.2 138.2C101.7 161.3 111.3 184.7 110 207.8C108.7 231 96.3 254 91.8 277C87.3 300 90.7 323 92.3 346C94 369 94 392 94.2 415.2C94.3 438.3 94.7 461.7 89.8 484.8C85 508 75 531 75.2 554C75.3 577 85.7 600 87.3 623C89 646 82 669 83.2 692.2C84.3 715.3 93.7 738.7 97 761.8C100.3 785 97.7 808 100.5 831C103.3 854 111.7 877 115.8 888.5L120 900L0 900L0 888.5C0 877 0 854 0 831C0 808 0 785 0 761.8C0 738.7 0 715.3 0 692.2C0 669 0 646 0 623C0 600 0 577 0 554C0 531 0 508 0 484.8C0 461.7 0 438.3 0 415.2C0 392 0 369 0 346C0 323 0 300 0 277C0 254 0 231 0 207.8C0 184.7 0 161.3 0 138.2C0 115 0 92 0 69C0 46 0 23 0 11.5L0 0Z" fill="#4f3068"></path><path d="M63 0L60.3 11.5C57.7 23 52.3 46 51.3 69C50.3 92 53.7 115 53.5 138.2C53.3 161.3 49.7 184.7 46.5 207.8C43.3 231 40.7 254 42.5 277C44.3 300 50.7 323 54 346C57.3 369 57.7 392 56.5 415.2C55.3 438.3 52.7 461.7 52.2 484.8C51.7 508 53.3 531 52.2 554C51 577 47 600 49.2 623C51.3 646 59.7 669 62.2 692.2C64.7 715.3 61.3 738.7 60.3 761.8C59.3 785 60.7 808 56.8 831C53 854 44 877 39.5 888.5L35 900L0 900L0 888.5C0 877 0 854 0 831C0 808 0 785 0 761.8C0 738.7 0 715.3 0 692.2C0 669 0 646 0 623C0 600 0 577 0 554C0 531 0 508 0 484.8C0 461.7 0 438.3 0 415.2C0 392 0 369 0 346C0 323 0 300 0 277C0 254 0 231 0 207.8C0 184.7 0 161.3 0 138.2C0 115 0 92 0 69C0 46 0 23 0 11.5L0 0Z" fill="#612f7b"></path></svg>